<svg width="558" height="350" viewBox="0 0 558 350" fill="none" xmlns="http://www.w3.org/2000/svg">
    <g clip-path="url(#clip0_7_813)">
        <path d="M398.177 238.553C398.182 263.816 389.602 288.332 373.845 308.079C358.087 327.826 336.087 341.633 311.452 347.235C286.817 352.836 261.01 349.901 238.263 338.91C215.516 327.918 197.179 309.523 186.259 286.742C175.339 263.96 172.484 238.144 178.163 213.527C183.842 188.91 197.717 166.953 217.514 151.258C237.31 135.562 261.853 127.059 287.116 127.144C312.38 127.228 336.865 135.895 356.556 151.722C369.544 162.162 380.026 175.383 387.229 190.41C394.432 205.437 398.173 221.888 398.177 238.553Z" fill="#D2EBFD"/>
        <path d="M381.259 221.664C381.261 242.682 375.319 263.272 364.119 281.057C352.919 298.842 336.918 313.097 317.962 322.176C299.007 331.255 277.87 334.788 256.992 332.367C236.114 329.947 216.346 321.671 199.971 308.495C182.754 287.095 174.048 260.09 175.522 232.664C176.996 205.237 188.548 179.322 207.959 159.89C227.371 140.459 253.275 128.881 280.7 127.379C308.124 125.877 335.138 134.556 356.556 151.751C372.572 171.528 381.295 196.215 381.259 221.664Z" fill="#E3F2FD"/>
        <path d="M260.246 300.203C260.449 292.967 254.052 285.036 240.362 285.036C226.671 285.036 220.275 292.923 220.478 300.203H260.246Z" fill="#2560A3"/>
        <path d="M316.715 247.106C316.531 249.28 315.577 251.317 314.025 252.85C312.473 254.383 310.425 255.313 308.249 255.47L303.821 255.745C261.551 258.246 219.175 258.396 176.889 256.194L172.547 255.962C169.606 255.961 166.737 255.048 164.337 253.347C161.936 251.647 160.123 249.244 159.146 246.469L158.249 243.951C158.262 243.899 158.262 243.844 158.249 243.792C158.378 244.124 158.528 244.448 158.698 244.761C158.86 245.071 159.049 245.366 159.262 245.644C159.262 245.644 159.262 245.644 159.262 245.76C159.45 246.02 159.653 246.252 159.841 246.483C160.101 246.768 160.377 247.038 160.666 247.294C160.904 247.507 161.155 247.705 161.418 247.887C161.975 248.298 162.583 248.634 163.227 248.886H163.314C163.626 249.011 163.945 249.118 164.269 249.204C164.553 249.294 164.843 249.362 165.138 249.407C165.472 249.467 165.811 249.505 166.151 249.522L170.492 249.768C212.779 251.956 255.154 251.806 297.424 249.32L301.853 249.045C304.029 248.881 306.076 247.948 307.627 246.413C309.178 244.877 310.132 242.84 310.318 240.666C312.417 214.76 312.417 188.727 310.318 162.822V162.272C310.178 160.596 309.582 158.99 308.596 157.627C308.489 157.476 308.373 157.331 308.249 157.192C308.053 156.955 307.846 156.728 307.627 156.512C306.538 155.437 305.201 154.647 303.734 154.211L305.268 154.631C308.388 155.483 311.165 157.286 313.214 159.788C315.263 162.291 316.481 165.369 316.701 168.596V169.146C318.81 195.09 318.815 221.161 316.715 247.106Z" fill="#3945A1"/>
        <path d="M308.249 255.485L303.821 255.745C261.551 258.246 219.175 258.396 176.889 256.194L172.547 255.962C170.35 255.827 168.276 254.903 166.705 253.361C165.133 251.82 164.171 249.763 163.994 247.569V246.874C161.925 221.117 161.925 195.236 163.994 169.479V168.712C164.172 166.531 165.125 164.485 166.681 162.945C168.236 161.405 170.292 160.474 172.475 160.318C217.678 157.627 263.002 157.627 308.206 160.318C310.389 160.474 312.444 161.405 314 162.945C315.555 164.485 316.508 166.531 316.686 168.712V169.262C318.784 195.163 318.784 221.191 316.686 247.091C316.51 249.266 315.563 251.306 314.016 252.845C312.47 254.383 310.424 255.32 308.249 255.485Z" fill="#18406D"/>
        <path d="M301.852 249.088L297.424 249.349C255.159 251.85 212.788 252 170.506 249.797L166.165 249.58C163.967 249.441 161.892 248.515 160.321 246.971C158.75 245.426 157.789 243.368 157.612 241.172V240.478C155.543 214.726 155.543 188.849 157.612 163.097L157.684 162.33C157.859 160.148 158.808 158.101 160.361 156.559C161.914 155.016 163.968 154.081 166.15 153.922C211.359 151.23 256.687 151.23 301.896 153.922C304.078 154.084 306.13 155.02 307.682 156.562C309.235 158.104 310.185 160.149 310.362 162.33V162.865C312.46 188.766 312.46 214.794 310.362 240.695C310.186 242.882 309.23 244.933 307.668 246.474C306.106 248.015 304.042 248.943 301.852 249.088Z" fill="#2560A3"/>
        <path d="M213.864 214.863C213.571 214.864 213.281 214.807 213.01 214.695C212.739 214.583 212.493 214.419 212.287 214.211L190.261 192.2C189.842 191.781 189.607 191.214 189.607 190.622C189.607 190.031 189.842 189.463 190.261 189.045C190.679 188.627 191.246 188.392 191.838 188.392C192.43 188.392 192.997 188.627 193.415 189.045L215.441 211.057C215.857 211.476 216.09 212.043 216.09 212.634C216.09 213.225 215.857 213.791 215.441 214.211C215.021 214.627 214.455 214.86 213.864 214.863Z" fill="white"/>
        <path d="M192.373 214.863C192.081 214.864 191.79 214.807 191.519 214.695C191.249 214.583 191.003 214.419 190.796 214.211C190.381 213.791 190.148 213.225 190.148 212.634C190.148 212.043 190.381 211.476 190.796 211.057L212.808 189.045C213.228 188.63 213.794 188.397 214.385 188.397C214.976 188.397 215.543 188.63 215.962 189.045C216.172 189.251 216.338 189.497 216.451 189.767C216.564 190.038 216.623 190.329 216.623 190.622C216.623 190.916 216.564 191.207 216.451 191.477C216.338 191.748 216.172 191.994 215.962 192.2L193.922 214.182C193.514 214.603 192.959 214.847 192.373 214.863Z" fill="white"/>
        <path d="M275.557 214.863C274.966 214.86 274.4 214.627 273.98 214.211L251.968 192.2C251.761 191.993 251.597 191.747 251.485 191.476C251.372 191.205 251.315 190.915 251.315 190.622C251.315 190.329 251.372 190.039 251.485 189.769C251.597 189.498 251.761 189.252 251.968 189.045C252.175 188.838 252.421 188.674 252.692 188.561C252.962 188.449 253.253 188.392 253.546 188.392C253.838 188.392 254.129 188.449 254.399 188.561C254.67 188.674 254.916 188.838 255.123 189.045L277.135 211.057C277.447 211.368 277.66 211.766 277.746 212.198C277.832 212.631 277.788 213.08 277.619 213.487C277.45 213.895 277.164 214.243 276.797 214.488C276.43 214.733 275.998 214.863 275.557 214.863Z" fill="white"/>
        <path d="M254.081 214.863C253.788 214.864 253.498 214.807 253.227 214.695C252.956 214.583 252.71 214.419 252.504 214.211C252.088 213.791 251.855 213.225 251.855 212.634C251.855 212.043 252.088 211.476 252.504 211.057L274.515 189.045C274.934 188.627 275.501 188.392 276.093 188.392C276.684 188.392 277.252 188.627 277.67 189.045C278.088 189.463 278.323 190.031 278.323 190.622C278.323 191.214 278.088 191.781 277.67 192.2L255.658 214.182C255.453 214.394 255.208 214.563 254.937 214.68C254.667 214.796 254.376 214.858 254.081 214.863Z" fill="white"/>
        <path d="M75.427 339.421V306.136H13.0247V278.365L51.5775 137.714H105.123V280.043H120.608V306.093H105.109V339.378L75.427 339.421ZM40.1882 280.087H75.427V163.821L40.1882 280.087Z" fill="#18406D"/>
        <path d="M62.4747 339.421V306.136H0V278.365L38.6252 137.714H92.1708V280.043H107.656V306.093H92.1563V339.378L62.4747 339.421ZM27.2214 280.087H62.4747V163.821L27.2214 280.087Z" fill="#2560A3"/>
        <path d="M509.03 339.421V306.136H446.556V278.365L485.181 137.714H538.726V280.043H554.269V306.093H538.784V339.378L509.03 339.421ZM473.777 280.087H509.03V163.821L473.777 280.087Z" fill="#18406D"/>
        <path d="M496.064 339.421V306.136H433.589V278.365L472.214 137.714H525.76V280.043H541.244V306.093H525.76V339.378L496.064 339.421ZM460.825 280.087H496.064V163.821L460.825 280.087Z" fill="#2560A3"/>
        <path d="M305.355 100.796H197.323C193.808 100.796 190.327 100.103 187.079 98.7578C183.832 97.4121 180.882 95.4398 178.397 92.9536C175.912 90.4673 173.941 87.5158 172.597 84.2676C171.253 81.0195 170.563 77.5384 170.564 74.0232C170.564 66.9265 173.384 60.1204 178.402 55.1022C183.42 50.0841 190.226 47.2649 197.323 47.2649H305.355C308.87 47.263 312.351 47.9537 315.599 49.2976C318.847 50.6415 321.799 52.6122 324.285 55.0971C326.771 57.582 328.744 60.5325 330.089 63.7799C331.435 67.0273 332.127 70.508 332.127 74.0232C332.127 81.1238 329.307 87.9336 324.286 92.9544C319.265 97.9753 312.455 100.796 305.355 100.796Z" fill="white"/>
        <path d="M223.401 98.191L223.386 114.834L199.363 98.191H223.401Z" fill="white"/>
        <path d="M221.336 62.3945L215.197 75.834C214.049 78.3496 212.964 80.0632 211.943 80.9746C210.923 81.8861 209.628 82.3418 208.061 82.3418C207.021 82.3418 206.174 82.1914 205.518 81.8906V77.8574C206.265 78.3405 207.04 78.582 207.842 78.582C208.945 78.582 209.915 77.6888 210.754 75.9023L204.314 62.3945H209.346L212.6 70.2422C212.791 70.7161 212.941 71.2493 213.051 71.8418H213.078C213.178 71.3496 213.333 70.8346 213.543 70.2969L216.688 62.3945H221.336ZM236.375 68L230.688 83.1211C229.32 86.7578 227.26 88.5762 224.508 88.5762C223.46 88.5762 222.598 88.4577 221.924 88.2207V84.7754C222.498 85.1126 223.122 85.2812 223.797 85.2812C224.909 85.2812 225.684 84.7572 226.121 83.709L226.859 81.9727L221.172 68H225.957L228.568 76.5176C228.732 77.0462 228.86 77.6706 228.951 78.3906H229.006C229.088 77.862 229.238 77.2467 229.457 76.5449L232.096 68H236.375ZM251.605 82H247.271V71.0488H242.432V82H238.111V68H251.605V82ZM265.865 81.4941C264.89 82.0592 263.482 82.3418 261.641 82.3418C259.49 82.3418 257.749 81.6901 256.418 80.3867C255.087 79.0833 254.422 77.4017 254.422 75.3418C254.422 72.9629 255.133 71.0898 256.555 69.7227C257.986 68.3464 259.895 67.6582 262.283 67.6582C263.933 67.6582 265.127 67.877 265.865 68.3145V71.9785C264.963 71.304 263.956 70.9668 262.844 70.9668C261.604 70.9668 260.62 71.3314 259.891 72.0605C259.171 72.7806 258.811 73.7786 258.811 75.0547C258.811 76.2943 259.157 77.2695 259.85 77.9805C260.542 78.6823 261.495 79.0332 262.707 79.0332C263.783 79.0332 264.835 78.696 265.865 78.0215V81.4941ZM270.637 82.3418C269.926 82.3418 269.333 82.123 268.859 81.6855C268.385 81.248 268.148 80.7103 268.148 80.0723C268.148 79.416 268.39 78.8783 268.873 78.459C269.365 78.0397 269.976 77.8301 270.705 77.8301C271.443 77.8301 272.045 78.0443 272.51 78.4727C272.984 78.8919 273.221 79.4251 273.221 80.0723C273.221 80.7376 272.979 81.2845 272.496 81.7129C272.022 82.1322 271.402 82.3418 270.637 82.3418ZM278.238 82.3418C277.527 82.3418 276.935 82.123 276.461 81.6855C275.987 81.248 275.75 80.7103 275.75 80.0723C275.75 79.416 275.992 78.8783 276.475 78.459C276.967 78.0397 277.577 77.8301 278.307 77.8301C279.045 77.8301 279.646 78.0443 280.111 78.4727C280.585 78.8919 280.822 79.4251 280.822 80.0723C280.822 80.7376 280.581 81.2845 280.098 81.7129C279.624 82.1322 279.004 82.3418 278.238 82.3418ZM285.84 82.3418C285.129 82.3418 284.536 82.123 284.062 81.6855C283.589 81.248 283.352 80.7103 283.352 80.0723C283.352 79.416 283.593 78.8783 284.076 78.459C284.568 78.0397 285.179 77.8301 285.908 77.8301C286.646 77.8301 287.248 78.0443 287.713 78.4727C288.187 78.8919 288.424 79.4251 288.424 80.0723C288.424 80.7376 288.182 81.2845 287.699 81.7129C287.225 82.1322 286.605 82.3418 285.84 82.3418Z" fill="#2560A3"/>
    </g>
    <defs>
        <clipPath id="clip0_7_813">
            <rect width="557.323" height="350" fill="white"/>
        </clipPath>
    </defs>
</svg>
